<svg width="131" height="58" viewBox="0 0 131 58" fill="none" xmlns="http://www.w3.org/2000/svg">
<path d="M39.2306 40.128C36.0224 40.128 33.2371 41.8934 31.7246 44.4869C30.9748 45.7728 30.5127 47.2549 30.5127 48.8459C30.5127 53.6495 34.4227 57.5638 39.2306 57.5638C44.0385 57.5638 47.9485 53.6495 47.9485 48.8459C47.9485 47.2549 47.4908 45.7728 46.7367 44.4869C45.2241 41.8934 42.4432 40.128 39.2306 40.128Z" fill="white"/>
<path d="M100.256 40.128C97.0478 40.128 94.2625 41.8934 92.7499 44.4869C92.0002 45.7728 91.5381 47.2549 91.5381 48.8459C91.5381 53.6495 95.4481 57.5638 100.256 57.5638C105.064 57.5638 108.974 53.6495 108.974 48.8459C108.974 47.2549 108.516 45.7728 107.762 44.4869C106.249 41.8934 103.469 40.128 100.256 40.128Z" fill="white"/>
<path d="M126.41 31.4101V27.0511L100.256 19.5755L69.7433 0.8974H21.7948V5.25636H47.9485V9.61531H0V13.9743H52.3075V18.3332H8.71791V22.6922H30.5127V27.0511H21.7948V31.4101H4.35896V35.7691H26.1537V40.128H21.7948V44.487H8.71791V48.8459H26.1537C26.1537 47.3116 26.4675 45.8557 26.9557 44.487C28.7604 39.4219 33.5465 35.7691 39.2306 35.7691C44.919 35.7691 49.7009 39.4219 51.5055 44.487C51.9893 45.8557 52.3075 47.3116 52.3075 48.8459H87.1791C87.1791 47.3116 87.4929 45.8557 87.9811 44.487C89.7858 39.4219 94.5719 35.7691 100.256 35.7691C105.944 35.7691 110.726 39.4219 112.531 44.487C113.015 45.8557 113.333 47.3116 113.333 48.8459H126.41V44.487H130.769V31.4101H126.41Z" fill="white"/>
</svg>
